<svg width="40" height="27" viewBox="0 0 40 27" fill="none" xmlns="http://www.w3.org/2000/svg">
<path d="M22.6079 18.9101C22.4675 9.17422 8.33168 12.1231 8.33168 7.95723C8.33168 6.69343 9.36144 5.94452 11.2337 5.94452C13.4805 5.94452 14.8379 7.1147 15.0719 8.89337H22.4675C21.9526 3.74458 18.208 0 11.4678 0C4.63391 0 0.84253 3.65096 0.84253 8.09765C0.84253 17.6931 15.0719 14.6507 15.0719 18.8633C15.0719 20.0335 13.9954 20.9696 11.9358 20.9696C9.7359 20.9696 8.09765 19.7526 7.91042 17.9272H0C0.374458 22.9823 5.05518 26.8673 12.0295 26.8673C18.5825 26.8673 22.6079 23.4504 22.6079 18.9101Z" fill="#1EECBC"/>
<path d="M40 18.9101C39.8596 9.17422 25.7238 12.1231 25.7238 7.95722C25.7238 6.69343 26.7535 5.94452 28.6258 5.94452C30.8726 5.94452 32.23 7.1147 32.464 8.89337H39.8596C39.3447 3.74458 35.6001 0 28.8599 0C22.026 0 18.2346 3.65096 18.2346 8.09765C18.2346 17.6931 32.464 14.6507 32.464 18.8633C32.464 20.0335 31.3874 20.9696 29.3279 20.9696C27.128 20.9696 25.4897 19.7526 25.3025 17.9272H17.3921C17.7665 22.9823 22.4473 26.8673 29.4215 26.8673C35.9746 26.8673 40 23.4504 40 18.9101Z" fill="#5457FF"/>
</svg>
